{"title":"Firelight.2012.DVDRip.XVID.AC3-TRiNiTY","uid":7210270,"size":1589973928,"categoryP":"video","categoryS":"movies","magnet":"?xt=urn:btih:d99c9c5b6e3767f263d6d6fa38f6b32423964874&amp;dn=Firelight.2012.DVDRip.XVID.AC3-TRiNiTY&amp;tr=udp%3A%2F%2Ftracker.openbittorrent.com%3A80&amp;tr=udp%3A%2F%2Fopen.demonii.com%3A1337&amp;tr=udp%3A%2F%2Ftracker.coppersurfer.tk%3A6969&amp;tr=udp%3A%2F%2Fexodus.desync.com%3A6969","seeders":0,"leechers":0,"uploader":null,"files":4,"time":1335216359,"description":"--------------------------------------------------------------------------------\nFirelight 2012 DVDRip XVID AC3-TRiNiTY\n--------------------------------------------------------------------------------\n\nooooooooooooo ooooooooo. o8o ooooo ooo o8o ooooooooooooo oooooo oooo\n 8' 888 `8 `888 `Y88. `&quot;' `888b. `8' `&quot;' 8' 888 `8 `888. .8'\n 888 888 .d88' oooo 8 `88b. 8 oooo 888 `888. .8'\n 888 888ooo88P' `888 8 `88b. 8 `888 888 `888.8'\n 888 888`88b. 888 8 `88b.8 888 888 `888'\n 888 888 `88b. 888 8 `888 888 888 888\n o888o o888o o888o o888o o8o `8 o888o o888o o888o\n ___________ ______\n ______ ___ /__ /____ _____________ __ /\n _ __ `/_ /__ /__ / / / ___/ __ `/ __/\n / /_/ /_ / _ / _ /_/ // /__ / /_/ // /\n __,_/ /_/ /_/ ___, / ___/ __,_/ __/\n /____/\n \nEnCoDer:Allycat\n \nGeneral\n &lt;a href=&quot; http://www.imdb.com/title/tt2281241/&quot; rel=&quot;nofollow&quot; target=&quot;_NEW&quot;&gt; http://www.imdb.com/title/tt2281241/&lt;/a&gt;\n Complete name: Firelight.2012.DVDRip.XVID.AC3-TRiNiTY.avi\n Format: AVI\n Format/Info: Audio Video Interleave\n File size: 1.44 GiB\n Duration: 1h 36mn\n Overall bit rate: 2 142 Kbps\n Writing library: VirtualDub build 30091/release\n \nVideo\n ID: 0\n Format: MPEG-4 Visual\n Format profile: Advanced Simple@L5\n Format settings, BVOP: 2\n Format settings, QPel: No\n Format settings, GMC: No warppoints\n Format settings, Matrix: Default (H.263)\n Codec ID: XVID\n Codec ID/Hint: XviD\n Duration: 1h 36mn\n Bit rate: 1 749 Kbps\n Width: 624 pixels\n Height: 352 pixels\n Display aspect ratio: 16:9\n Frame rate: 23.976 fps\n Color space: YUV\n Chroma subsampling: 4:2:0\n Bit depth: 8 bits\n Scan type: Progressive\n Compression mode: Lossy\n Bits/(Pixel*Frame): 0.332\n Stream size: 1.18 GiB (82%)\n Writing library: XviD 1.2.1 (UTC 2008-12-04)\n \nAudio\n ID: 1\n Format: AC-3\n Format/Info: Audio Coding 3\n Mode extension: CM (complete main)\n Codec ID: 2000\n Duration: 1h 36mn\n Bit rate mode: Constant\n Bit rate: 384 Kbps\n Channel(s): 6 channels\n Channel positions: Front: L C R, Side: L R, LFE\n Sampling rate: 48.0 KHz\n Bit depth: 16 bits\n Compression mode: Lossy\n Stream size: 265 MiB (18%)\n Alignment: Aligned on interleaves\n Interleave, duration: 42 ms (1.00 video frame)\n Interleave, preload duration: 512 ms\n\n","torrent":{"xt":"urn:btih:d99c9c5b6e3767f263d6d6fa38f6b32423964874","amp;dn":"Firelight.2012.DVDRip.XVID.AC3-TRiNiTY","amp;tr":["udp%3A%2F%2Ftracker.openbittorrent.com%3A80","udp%3A%2F%2Fopen.demonii.com%3A1337","udp%3A%2F%2Ftracker.coppersurfer.tk%3A6969","udp%3A%2F%2Fexodus.desync.com%3A6969"],"infoHash":"d99c9c5b6e3767f263d6d6fa38f6b32423964874","infoHashBuffer":{"type":"Buffer","data":[217,156,156,91,110,55,103,242,99,214,214,250,56,246,179,36,35,150,72,116]},"announce":[],"urlList":[]}}